<?xml version="1.0" encoding="UTF-8"?>
<svg width="87px" height="110px" viewBox="0 0 87 110" version="1.1" xmlns="http://www.w3.org/2000/svg" xmlns:xlink="http://www.w3.org/1999/xlink">
    <title>人工智能</title>
    <g id="页面-1" stroke="none" stroke-width="1" fill="none" fill-rule="evenodd">
        <g id="图标补充" transform="translate(-339.000000, -37.000000)" fill="#FFA8AB" fill-rule="nonzero">
            <g id="人工智能" transform="translate(339.203125, 37.460938)">
                <path d="M74.005013,108.538902 L24.4524477,108.538902 C23.6165939,108.538902 22.8295199,108.154719 22.3280076,107.502212 C21.8264953,106.849705 21.6690805,106.004868 21.9031197,105.22186 L24.4258923,96.8001057 C24.7060061,95.8697719 25.4949651,95.1698873 26.4706658,94.9861892 L70.9776858,86.5903477 C71.6887006,86.45024 72.4275033,86.6000437 73.0224594,87.0049572 C73.627662,87.4008879 74.0253743,88.0350855 74.111235,88.7411342 L76.7667851,105.55873 C76.8837037,106.310397 76.6564433,107.074246 76.1451986,107.647955 C75.6339538,108.221663 74.8903093,108.547345 74.111235,108.538902 L74.005013,108.538902 Z M27.9843294,103.356118 L70.9511302,103.356118 L69.2781338,92.1875754 L29.0731049,99.7801111 L27.9843294,103.356118 Z" id="形状"></path>
                <path d="M33.0959716,99.5390625 L32.6923495,99.5390625 C31.9854174,99.4330647 31.3497883,99.0505805 30.9257338,98.4760169 C30.5016793,97.9014534 30.3240575,97.1820406 30.4320662,96.4765399 C30.3180915,91.5618764 29.4747675,86.6912519 27.9296097,82.0235826 C27.7037658,81.3325581 27.7680412,80.5796583 28.1077628,79.936759 C28.4474845,79.2938597 29.033653,78.8158401 29.7324548,78.611825 C31.1879273,78.278058 32.6548661,79.1216362 33.0959716,80.5460498 L33.3650529,81.3519768 L33.3650529,81.8086687 C34.4951945,85.9457607 36.2711314,93.4408817 35.6791526,97.2824669 C35.4728009,98.5564908 34.3881763,99.5039889 33.0959716,99.5390625 L33.0959716,99.5390625 Z" id="路径"></path>
                <path d="M19.152116,85.5390625 C18.0084542,85.5387641 16.8661714,85.4606196 15.7333786,85.3051837 L15.4703988,85.3051837 C11.0407252,84.0837389 8.22304781,79.7959065 8.89590383,75.3003715 L8.89590383,61.137715 C8.89590383,59.7025189 10.0733045,58.5390625 11.5257018,58.5390625 C12.2231676,58.5390625 12.892067,58.8128483 13.3852498,59.3001901 C13.8784326,59.787532 14.1554999,60.4485095 14.1554999,61.137715 L14.1554999,75.7681289 C13.7061856,77.7221749 14.8504954,79.6896928 16.7852978,80.2897844 C26.9626161,81.7450299 39.5593485,73.3773685 39.6908385,73.299409 C40.8963282,72.4956991 42.5329152,72.8098323 43.3462577,74.0010452 C44.1596002,75.192258 43.841702,76.8094623 42.6362122,77.6131722 C42.0576566,77.847051 30.4602475,85.5390625 19.152116,85.5390625 L19.152116,85.5390625 Z" id="路径"></path>
                <path d="M49.1145781,95.5378711 C47.6763928,95.5378711 46.5105131,94.3542417 46.5105131,92.8941609 L46.5105131,65.3467001 L28.2820577,45.7303701 C27.4887866,44.6463179 27.6278147,43.1295581 28.60449,42.2127189 C29.5811654,41.2958798 31.081476,41.2737351 32.0839926,42.1613612 L51.0936676,62.4650559 C51.5494622,62.9592778 51.80112,63.6121943 51.7968208,64.289216 L51.7968208,92.8941609 C51.7970823,93.6092768 51.5120284,94.2940194 51.0066423,94.7921555 C50.5012562,95.2902917 49.8186532,95.5593247 49.1145781,95.5378711 Z M47.3438139,43.3510309 C46.6733465,43.3483202 46.0297441,43.083172 45.547009,42.6107919 L31.2506918,28.6520019 C30.7472319,28.1510233 30.465355,27.4642194 30.4694724,26.7485305 L30.4694724,13.8207874 L24.4540819,6.94714069 C23.835404,6.23876065 23.6359709,5.24910477 23.9309074,4.35096684 C24.2258438,3.45282891 24.9703418,2.78265745 25.8839562,2.59289955 C26.7975706,2.40314166 27.7415016,2.72262607 28.3601796,3.43100611 L35.0005456,11.0448917 C35.4346369,11.5297436 35.6759175,12.1609714 35.6776024,12.8161775 L35.6776024,25.6381721 L49.1666594,38.8567233 C50.176317,39.8878694 50.176317,41.5532089 49.1666594,42.5843549 C48.6816246,43.0727649 48.026964,43.3481106 47.3438139,43.3510309 L47.3438139,43.3510309 Z" id="形状"></path>
                <path d="M59.0546568,93.5390625 C57.6134166,93.5390625 56.4450607,92.361554 56.4450607,90.9090237 L56.4450607,58.2176399 C56.4538691,57.5623034 56.7051406,56.9338933 57.1496516,56.4555139 L62.6037076,50.4327247 L62.6037076,39.7810672 L49.5557265,27.0253785 C48.5439245,25.9995648 48.5439245,24.3428373 49.5557265,23.3170236 C50.0457215,22.819124 50.7127235,22.5390625 51.4085399,22.5390625 C52.1043562,22.5390625 52.7713582,22.819124 53.2613532,23.3170236 L67.0139253,36.8354236 C67.5119814,37.3274287 67.793909,37.9998841 67.796875,38.7027512 L67.796875,51.4584399 C67.8016328,52.1193244 67.559401,52.7578165 67.1183091,53.2468664 L61.6381571,59.2433551 L61.6381571,90.8038221 C61.6664298,91.514852 61.4076153,92.2070826 60.9207936,92.7224974 C60.4339719,93.2379122 59.7606964,93.5325172 59.0546568,93.5390625 L59.0546568,93.5390625 Z" id="路径"></path>
                <path d="M67.9001985,90.5390625 C66.4947594,90.5408293 65.3352718,89.4311197 65.2650009,88.0169925 L63.8419943,61.2830959 C63.8183469,60.6725095 64.0044971,60.0723963 64.3690338,59.5840201 L68.4008859,54.0885716 L68.4008859,36.5403037 L59.91555,26.505137 C59.513185,26.0311963 59.2892814,25.4296771 59.2831026,24.8060611 L59.2831026,9.3816382 C54.0358821,7.35817548 48.5037621,6.18438083 42.892174,5.90384228 C32.3513839,5.37288115 22.5484493,7.76220655 16.1185675,12.4612132 C12.611593,14.8762541 10.122272,18.5197256 9.13529404,22.6822163 C8.67565172,25.846818 8.72905032,29.0656096 9.29340584,32.2129699 C9.99138166,36.1195424 9.99138166,40.1202843 9.29340584,44.0268568 C8.68731036,46.6816628 8.00215913,49.0975363 7.31700775,51.64615 C6.97443214,52.973553 6.60550436,54.3009559 6.26292874,55.6283591 C5.92035313,56.9557622 6.10481694,57.353983 6.26292874,57.4336271 C6.42104054,57.5132713 7.44876768,58.5751937 13.4833699,57.0354062 C14.8949111,56.6846917 16.321718,57.5518977 16.6719589,58.9734146 C17.0217465,60.3873076 16.1749523,61.8209816 14.7746167,62.18573 C10.9008764,63.1680082 5.41966557,64.1237384 2.52094826,61.1769036 C0.841140105,59.3013722 0.342767907,56.637271 1.22970155,54.274408 C1.59862918,52.9204569 1.96755681,51.619602 2.31013242,50.2391029 C2.9952838,47.7701333 3.65408316,45.3011636 4.23382663,42.8056459 C4.82566014,39.51392 4.82566014,36.1418494 4.23382663,32.8501234 C3.61366399,29.124006 3.61366399,25.3198634 4.23382663,21.5937459 C5.45541295,16.1269976 8.68438926,11.3281067 13.2725542,8.16042732 C20.6247552,2.85081524 31.7189367,0.0101728707 43.3928616,0.620778308 C49.837815,0.942434668 56.1859877,2.33274106 62.1818199,4.73572761 C62.8990881,4.7384853 63.5842487,5.0356801 64.0791621,5.55871741 C73.9476585,9.59403889 81.4875549,17.8921091 84.6073507,28.1511166 C88.8236667,43.310059 80.9180742,56.8495698 75.1469916,66.7519963 C71.8562159,73.2643883 70.3205154,80.5331417 70.6935078,87.8311561 C70.6935078,88.5352545 70.4158717,89.2105148 69.9216763,89.7083875 C69.427481,90.2062602 68.7572081,90.4859622 68.0583103,90.4859622 L67.9001985,90.5390625 Z M69.2441492,61.9733455 L69.4286131,65.9555546 C69.7448368,65.3184012 70.0874124,64.6812476 70.4563401,64.0706422 C77.3078535,52.3363996 82.7100085,41.6375313 79.3633077,29.5581639 C77.0628424,21.8617772 71.7416168,15.4460542 64.6325536,11.7975115 L64.6325536,23.7706868 L73.1178895,33.7793055 C73.5260964,34.2602019 73.7503852,34.8721709 73.7503369,35.5049294 L73.7503369,54.9115614 C73.7446872,55.4768901 73.5600443,56.0256397 73.2232974,56.477897 L69.2441492,61.9733455 Z" id="形状"></path>
                <path d="M25.0600327,48.8600929 C20.4964167,48.8600929 16.796875,45.1294188 16.796875,40.5273991 C16.796875,35.9253795 20.4964169,32.1947056 25.0600329,32.1947056 C29.623649,32.1947056 33.3231907,35.9253796 33.3231907,40.5273992 C33.3087449,45.1233714 29.6176518,48.8455256 25.0600327,48.8600929 L25.0600327,48.8600929 Z M25.0600326,37.5021537 C23.4031784,37.5021537 22.0600326,38.8566023 22.0600326,40.5273992 C22.0600326,42.1981962 23.4031784,43.5526448 25.0600326,43.5526448 C26.716887,43.5526448 28.0600326,42.1981962 28.0600326,40.5273992 C28.081336,39.7113509 27.7746951,38.9212557 27.2097605,38.3365752 C26.6448258,37.7518947 25.8695515,37.4222593 25.0600326,37.4225418 L25.0600326,37.5021537 Z M46.9547697,30.2044547 C42.3946075,30.1897673 38.708272,26.4526332 38.7179273,21.8540836 C38.7276205,17.2555339 42.4296468,13.5342059 46.9898295,13.5390673 C51.5500123,13.5439382 55.2442434,17.2731587 55.2442434,21.8717188 C55.2442434,24.0862921 54.3700628,26.2097769 52.8147238,27.7732252 C51.2593849,29.3366734 49.1508514,30.2114652 46.9547697,30.2044547 L46.9547697,30.2044547 Z M46.9547697,18.8464732 C45.3014187,18.8610988 43.9714885,20.2219551 43.9810842,21.8892551 C43.9907843,23.5565551 45.3363727,24.9016677 46.9897804,24.8968482 C48.6431881,24.8920027 49.9810218,23.5390471 49.9810842,21.8717188 C49.9666406,20.1966383 48.6159345,18.8464099 46.9547697,18.8464732 L46.9547697,18.8464732 Z M50.533717,54.5390625 C45.9701009,54.5390625 42.2705593,50.8083884 42.2705593,46.2063687 C42.2705593,41.6043491 45.9701011,37.8736752 50.5337172,37.8736752 C55.0973332,37.8736752 58.796875,41.6043492 58.796875,46.2063688 C58.7824292,50.802341 55.0913361,54.5244952 50.533717,54.5390625 L50.533717,54.5390625 Z M50.5337169,43.1811233 C48.8768627,43.1811233 47.5337169,44.5355719 47.5337169,46.2063688 C47.5337169,47.8771658 48.8768627,49.2316144 50.5337169,49.2316144 C52.1905713,49.2316144 53.5337169,47.8771658 53.5337169,46.2063688 C53.5337169,44.5355719 52.1905713,43.1811233 50.5337169,43.1811233 Z" id="形状"></path>
            </g>
        </g>
    </g>
</svg>