<?xml version="1.0" encoding="UTF-8"?>
<svg width="26px" height="30px" viewBox="0 0 26 30" version="1.1" xmlns="http://www.w3.org/2000/svg" xmlns:xlink="http://www.w3.org/1999/xlink">
    <title>AI</title>
    <g id="页面-1" stroke="none" stroke-width="1" fill="none" fill-rule="evenodd">
        <g id="图标补充" transform="translate(-219.000000, -77.000000)" fill="#195ECB" fill-rule="nonzero">
            <g id="AI" transform="translate(219.000000, 77.000000)">
                <path d="M12.560714,0 C6.42349294,0 1.40753302,4.531 1.40753302,10.18 C1.40753302,10.921 1.4946982,11.652 1.66506651,12.363 L0.0861881324,15.932 C-0.0406553369,16.2185658 -0.0268678693,16.5486304 0.12342359,16.8233969 C0.273715048,17.0981635 0.54307035,17.2857474 0.850864486,17.33 C2.53077523,17.572 3.22413462,18.304 3.22413462,19.746 L3.22413462,23.232 C3.22413462,24.3365695 4.11107054,25.232 5.20516144,25.232 L5.84602362,25.232 C6.94011452,25.232 7.82705044,26.1274305 7.82705044,27.232 L7.82705044,29 C7.82705044,29.5522847 8.2705184,30 8.81756385,30 L19.5151087,30 C20.0621541,30 20.5056221,29.5522847 20.5056221,29 C20.5056221,28.4477153 20.0621541,28 19.5151087,28 L9.80807726,28 L9.80807726,27.231 C9.80807726,25.021861 8.03420543,23.231 5.84602362,23.231 L5.20417093,23.231 L5.20417093,19.745 C5.20417093,17.693 4.20771444,16.286 2.38120771,15.647 L3.61538742,12.857 C3.71028321,12.6427993 3.72746574,12.4017101 3.66392257,12.176 C3.4808812,11.5264394 3.38820599,10.8543354 3.38855985,10.179 C3.38855985,5.688 7.47244664,1.999 12.560714,1.999 C17.6489814,1.999 21.7328682,5.687 21.7328682,10.179 C21.7328682,10.7312847 22.1763362,11.179 22.7233816,11.179 C23.2704271,11.179 23.713895,10.7312847 23.713895,10.179 C23.713895,4.531 18.6969446,0 12.560714,0 Z M25.0094866,13 C24.4624411,13 24.0189732,13.4477153 24.0189732,14 L24.0189732,25.25 C24.0189732,25.8022847 24.4624411,26.25 25.0094866,26.25 C25.556532,26.25 26,25.8022847 26,25.25 L26,14 C26,13.4477153 25.556532,13 25.0094866,13 Z" id="形状"></path>
                <path d="M18.537673,14.562496 C18.2022615,13.7912245 17.1549002,13.8192181 16.8578737,14.6088302 L13.0650732,24.6768672 C12.8783163,25.1724006 13.1072522,25.7340156 13.5764158,25.9312693 C14.0455794,26.1285231 14.5773081,25.8867196 14.764065,25.3911863 L15.6953575,22.9200286 C15.7118082,22.9209939 15.726431,22.9296815 15.7428817,22.9296815 L20.1653785,22.9296815 L21.2556944,25.4365552 C21.4664268,25.9208931 22.0089987,26.1330924 22.4675627,25.9105155 C22.9261266,25.6879386 23.1270337,25.114871 22.9163012,24.630533 L18.537673,14.562496 L18.537673,14.562496 Z M16.4182744,20.9981243 L17.7681458,17.4168762 L19.3254788,20.9981243 L16.4182744,20.9981243 Z" id="形状"></path>
            </g>
        </g>
    </g>
</svg>