<svg  xmlns="http://www.w3.org/2000/svg" xmlns:xlink="http://www.w3.org/1999/xlink" width="26px" height="26px"><path fill-rule="evenodd"  fill="rgb(25, 94, 203)" d="M25.053,7.996 C24.531,7.996 24.108,7.572 24.108,7.050 L24.108,2.837 C24.108,2.316 23.684,1.892 23.162,1.892 L2.838,1.892 C2.315,1.892 1.892,2.316 1.892,2.837 L1.892,23.161 C1.892,23.684 2.315,24.107 2.838,24.107 L7.446,24.107 C7.968,24.107 8.391,24.530 8.391,25.052 C8.391,25.574 7.968,25.997 7.446,25.997 L0.947,25.997 C0.425,25.997 0.002,25.574 0.002,25.052 L0.002,0.947 C0.002,0.425 0.425,0.002 0.947,0.002 L25.053,0.002 C25.575,0.002 25.998,0.425 25.998,0.947 L25.998,7.050 C25.998,7.572 25.575,7.996 25.053,7.996 ZM4.705,7.133 C4.294,7.133 3.960,6.799 3.960,6.387 L3.960,5.987 C3.960,5.575 4.294,5.242 4.705,5.242 L21.295,5.242 C21.706,5.242 22.039,5.575 22.039,5.987 L22.039,6.387 C22.039,6.799 21.706,7.133 21.295,7.133 L4.705,7.133 ZM13.165,15.490 L17.560,15.490 L14.135,12.065 C13.896,11.826 13.896,11.438 14.135,11.200 L14.606,10.728 C14.846,10.489 15.233,10.489 15.472,10.728 L18.908,14.165 L22.346,10.727 C22.585,10.488 22.972,10.488 23.210,10.727 L23.683,11.200 C23.922,11.438 23.922,11.825 23.683,12.064 L20.256,15.490 L24.547,15.490 C24.886,15.490 25.160,15.765 25.160,16.104 L25.160,16.768 C25.160,17.107 24.886,17.381 24.547,17.381 L19.800,17.381 L19.800,19.844 L24.553,19.844 C24.888,19.844 25.160,20.116 25.160,20.451 L25.160,21.128 C25.160,21.463 24.888,21.735 24.553,21.735 L19.800,21.735 L19.800,25.391 C19.800,25.725 19.529,25.995 19.195,25.995 L18.514,25.995 C18.180,25.995 17.909,25.725 17.909,25.391 L17.909,21.735 L13.159,21.735 C12.823,21.735 12.552,21.463 12.552,21.128 L12.552,20.451 C12.552,20.116 12.823,19.844 13.159,19.844 L17.909,19.844 L17.909,17.381 L13.165,17.381 C12.826,17.381 12.552,17.107 12.552,16.768 L12.552,16.104 C12.552,15.765 12.826,15.490 13.165,15.490 Z"/></svg>