<?xml version="1.0" encoding="UTF-8"?>
<svg width="40px" height="58px" viewBox="0 0 40 58" version="1.1" xmlns="http://www.w3.org/2000/svg" xmlns:xlink="http://www.w3.org/1999/xlink">
    <title>LOGO_s</title>
    <g id="页面-1" stroke="none" stroke-width="1" fill="none" fill-rule="evenodd" fill-opacity="0.8" opacity="0.8">
        <g id="图标补充" transform="translate(-73.000000, -63.000000)" fill="#000000">
            <g id="LOGO_s" transform="translate(73.000000, 63.000000)">
                <path d="M37.734,36.671 C35.528,43.106 30.674,52.001 20.07,57.972 L20.051,57.952 L19.981,57.999 C9.342,52.029 4.475,43.117 2.265,36.671 C-0.14,29.658 -0.003,24.102 0.003,23.868 L0.026,23.143 L0.676,22.804 C0.825,22.726 4.158,20.995 8.911,19.285 L8.911,21.955 C6.089,23.01 3.877,24.024 2.757,24.563 L2.534,24.67 L2.543,24.914 C2.624,26.96 3.011,31.119 4.697,35.988 C5.593,38.573 6.74,40.96 8.083,43.184 L8.083,32.211 L9.873,31.291 L9.873,12.065 L16.257,6.629 L18.258,8.037 L18.258,5.082 L24.641,0 L29.99,4.258 L29.99,31.242 L31.876,32.211 L31.876,43.254 C33.237,41.01 34.398,38.6 35.303,35.988 C36.989,31.12 37.376,26.96 37.457,24.914 L37.466,24.67 L37.244,24.562 C36.098,24.013 33.834,22.976 30.953,21.905 L30.953,19.236 C35.782,20.963 39.173,22.724 39.325,22.804 L39.975,23.143 L39.997,23.868 C40.004,24.102 40.14,29.658 37.734,36.671 Z M20,55.112 L20.201,54.989 C20.855,54.585 21.471,54.147 22.09,53.711 L22.09,16.871 L18.499,20.05 L18.499,54.109 C18.932,54.403 19.349,54.711 19.799,54.989 L20,55.112 Z M11.72,12.971 L11.72,48.159 C12.802,49.391 13.963,50.555 15.222,51.633 L15.222,10.188 L11.72,12.971 Z M23.606,12.5 L23.606,3.671 L20,6.445 L20,9.262 L21.606,10.391 L21.606,13.39 L16.907,18.572 L23.125,13.279 L28.474,17.04 L23.606,12.5 Z" id="形状"></path>
            </g>
        </g>
    </g>
</svg>