<?xml version="1.0" encoding="UTF-8"?>
<svg width="112px" height="112px" viewBox="0 0 112 112" version="1.1" xmlns="http://www.w3.org/2000/svg" xmlns:xlink="http://www.w3.org/1999/xlink">
    <title>小程序 (2)</title>
    <g id="页面-1" stroke="none" stroke-width="1" fill="none" fill-rule="evenodd">
        <g id="图标补充" transform="translate(-59.000000, -202.000000)" fill="#2CA347" fill-rule="nonzero">
            <g id="小程序-(2)" transform="translate(59.000000, 202.000000)">
                <path d="M56,0 C25.072054,0 0,25.072054 0,56 C0,86.927946 25.072054,112 56,112 C86.927946,112 112,86.927946 112,56 C112,41.1478766 106.100017,26.9040574 95.5979797,16.4020203 C85.0959426,5.89998306 70.8521234,0 56,0 Z M84.0784219,50.3328438 C81.8961315,53.8317657 78.4910774,56.3945126 74.5248437,57.5231562 C73.6599536,57.8053776 72.7576515,57.9563881 71.848,57.9711562 C70.0985783,57.9608977 68.6858084,56.5398189 68.6858084,54.7903672 C68.6858084,53.0409154 70.0985783,51.6198367 71.848,51.6095781 C72.0900479,51.6151195 72.3305226,51.5693059 72.5535781,51.4751562 C75.100849,50.8420894 77.2971702,49.2330513 78.6687344,46.9951562 C79.4666878,45.6907756 79.8855687,44.1899244 79.8784219,42.6608437 C79.8784219,37.632 75.2304219,33.488 69.5632656,33.488 C67.6021098,33.4921339 65.674514,33.9971489 63.9632656,34.9551562 C61.0909251,36.4677162 59.2613725,39.4155868 59.1808437,42.6608437 L59.1808437,69.3728437 C59.1242209,74.8830952 56.0786374,79.9275943 51.2288437,82.544 C48.5665295,84.0408975 45.5581386,84.8132662 42.504,84.784 C33.2751562,84.784 25.704,77.84 25.704,69.2495781 C25.7203261,66.5547855 26.4673817,63.9148968 27.8655781,61.6111563 C30.0478685,58.1122343 33.4529226,55.5494874 37.4191562,54.4208437 C38.2850566,54.1427603 39.1867407,53.9918533 40.096,53.9728437 C41.2368301,53.9661539 42.2938747,54.5709416 42.8662297,55.5578295 C43.4385846,56.5447175 43.4385846,57.7625481 42.8662297,58.7494361 C42.2938747,59.7363241 41.2368301,60.3411117 40.096,60.3344219 C39.8539521,60.3288805 39.6134774,60.3746941 39.3904219,60.4688437 C36.8650453,61.1480907 34.6842605,62.7457467 33.2752656,64.9488437 C32.4773122,66.2532244 32.0584313,67.7540756 32.0655781,69.2831563 C32.0655781,74.312 36.7135781,78.456 42.448,78.456 C44.4091558,78.4518661 46.3367516,77.9468511 48.048,76.9888438 C50.9159816,75.4732996 52.7408682,72.5260043 52.8191562,69.2831563 L52.8191562,42.6945313 C52.8811265,37.1798701 55.9299152,32.1328931 60.7824219,29.5121094 C63.3965376,27.9456 66.3925841,27.1316655 69.44,27.1601094 C78.6688437,27.1601094 86.24,34.1041094 86.24,42.6945313 C86.2236739,45.3893239 85.4766183,48.0292126 84.0784219,50.3329531 L84.0784219,50.3328438 Z" id="形状"></path>
            </g>
        </g>
    </g>
</svg>