<svg  xmlns="http://www.w3.org/2000/svg" xmlns:xlink="http://www.w3.org/1999/xlink" width="86px" height="86px"><path fill-rule="evenodd"  fill="rgb(255, 168, 171)" d="M43.000,0.001 C19.252,0.001 0.000,19.252 0.000,43.000 C0.000,66.748 19.252,86.000 43.000,86.000 C66.748,86.000 86.000,66.748 86.000,43.000 C86.000,19.252 66.748,0.001 43.000,0.001 L43.000,0.001 ZM39.929,24.406 C35.803,24.061 31.869,23.054 28.242,21.453 C31.180,13.724 35.519,8.476 39.929,6.766 L39.929,24.406 ZM39.929,30.551 L39.929,39.929 L24.657,39.929 C24.853,35.374 25.475,31.153 26.422,27.338 C30.625,29.109 35.166,30.211 39.929,30.551 L39.929,30.551 ZM39.929,46.072 L39.929,55.450 C35.166,55.790 30.625,56.892 26.422,58.663 C25.473,54.849 24.853,50.627 24.657,46.072 L39.929,46.072 ZM39.929,61.594 L39.929,79.234 C35.519,77.525 31.180,72.276 28.242,64.547 C31.869,62.946 35.803,61.938 39.929,61.594 L39.929,61.594 ZM46.071,61.594 C50.197,61.940 54.131,62.946 57.757,64.547 C54.820,72.276 50.481,77.525 46.071,79.234 L46.071,61.594 ZM46.071,55.450 L46.071,46.072 L61.343,46.072 C61.146,50.627 60.526,54.849 59.578,58.663 C55.375,56.890 50.834,55.790 46.071,55.450 L46.071,55.450 ZM46.071,39.929 L46.071,30.551 C50.834,30.211 55.375,29.109 59.578,27.338 C60.526,31.153 61.146,35.374 61.343,39.929 L46.071,39.929 ZM46.071,24.406 L46.071,6.766 C50.481,8.475 54.820,13.725 57.757,21.453 C54.131,23.055 50.197,24.062 46.071,24.406 L46.071,24.406 ZM58.449,9.582 C61.658,11.072 64.636,13.015 67.292,15.351 C66.000,16.491 64.606,17.509 63.164,18.462 C61.835,15.129 60.250,12.136 58.449,9.582 L58.449,9.582 ZM22.837,18.462 C21.395,17.509 20.000,16.492 18.709,15.352 C21.364,13.015 24.343,11.073 27.552,9.583 C25.750,12.136 24.164,15.129 22.837,18.462 L22.837,18.462 ZM20.847,24.495 C19.552,29.229 18.740,34.430 18.518,39.929 L6.300,39.929 C6.931,32.324 9.862,25.367 14.421,19.769 C16.402,21.541 18.562,23.110 20.847,24.495 L20.847,24.495 ZM18.517,46.072 C18.740,51.571 19.552,56.770 20.845,61.506 C18.561,62.891 16.402,64.461 14.419,66.231 C9.860,60.634 6.929,53.676 6.297,46.072 L18.517,46.072 ZM22.837,67.538 C24.164,70.872 25.750,73.865 27.552,76.419 C24.343,74.929 21.365,72.986 18.709,70.649 C20.000,69.509 21.395,68.490 22.837,67.538 L22.837,67.538 ZM63.163,67.538 C64.605,68.491 65.999,69.509 67.291,70.648 C64.636,72.985 61.657,74.928 58.448,76.418 C60.250,73.864 61.835,70.872 63.163,67.538 L63.163,67.538 ZM65.154,61.506 C66.447,56.770 67.260,51.571 67.482,46.072 L79.701,46.072 C79.069,53.676 76.138,60.634 71.579,66.231 C69.598,64.461 67.438,62.891 65.154,61.506 L65.154,61.506 ZM67.483,39.929 C67.260,34.430 66.449,29.229 65.154,24.495 C67.439,23.110 69.598,21.541 71.580,19.769 C76.140,25.367 79.071,32.324 79.702,39.929 L67.483,39.929 Z"/></svg>