<svg  xmlns="http://www.w3.org/2000/svg" xmlns:xlink="http://www.w3.org/1999/xlink" width="82px" height="82px"><path fill-rule="evenodd"  fill="rgb(255, 168, 171)" d="M77.195,0.000 L4.805,0.000 C2.162,0.000 -0.000,2.163 -0.000,4.805 L-0.000,58.538 C-0.000,61.180 2.162,63.342 4.805,63.342 L77.195,63.342 C79.838,63.342 82.000,61.180 82.000,58.538 L82.000,4.805 C82.000,2.163 79.838,0.000 77.195,0.000 L77.195,0.000 ZM75.754,52.724 C75.754,54.872 74.196,56.615 72.275,56.615 L23.180,56.615 L31.774,42.176 L42.839,47.508 C44.210,48.170 45.807,47.778 46.806,46.535 L58.357,32.173 C59.472,32.630 64.160,32.589 65.904,31.952 C69.188,30.750 69.828,29.629 71.750,26.507 C73.003,24.471 73.592,17.538 69.028,13.534 C65.356,10.313 57.607,10.543 54.293,14.334 C50.979,18.126 50.461,22.639 52.895,27.191 L43.187,39.256 L31.879,33.730 C30.338,32.979 28.536,33.568 27.600,35.132 L14.830,56.615 L9.645,56.615 C7.724,56.615 6.166,54.872 6.166,52.724 L6.166,9.909 C6.166,8.877 6.533,7.887 7.186,7.158 C7.837,6.428 8.723,6.017 9.645,6.017 L72.275,6.017 C74.196,6.017 75.754,7.760 75.754,9.909 L75.754,52.724 ZM56.695,21.662 C56.695,18.720 59.079,16.335 62.021,16.335 C64.962,16.335 67.346,18.720 67.346,21.662 C67.346,24.602 64.962,26.987 62.021,26.987 C59.079,26.987 56.695,24.602 56.695,21.662 L56.695,21.662 ZM76.875,78.116 C76.875,80.253 75.128,82.000 72.991,82.000 L9.049,82.000 C6.913,82.000 5.165,80.252 5.165,78.116 C5.165,75.981 6.912,74.233 9.049,74.233 L72.991,74.233 C75.128,74.233 76.875,75.980 76.875,78.116 L76.875,78.116 Z"/></svg>