<svg  xmlns="http://www.w3.org/2000/svg" xmlns:xlink="http://www.w3.org/1999/xlink" width="75px" height="75px"><path fill-rule="evenodd"  fill="rgb(255, 168, 171)" d="M64.769,0.006 C68.853,0.011 72.543,2.445 74.154,6.198 C75.765,9.952 74.988,14.304 72.178,17.267 C69.368,20.231 65.064,21.239 61.230,19.831 L49.685,31.379 C50.118,32.235 50.459,33.145 50.704,34.093 L55.125,34.093 C56.785,29.395 61.589,26.577 66.499,27.419 C71.410,28.261 75.000,32.519 75.000,37.501 C75.000,42.484 71.410,46.740 66.499,47.584 C61.589,48.425 56.785,45.607 55.125,40.909 L50.704,40.909 C50.380,42.164 49.886,43.343 49.245,44.427 L60.357,55.540 C64.852,53.394 70.239,54.796 73.115,58.863 C75.990,62.929 75.518,68.476 71.997,71.997 C68.475,75.520 62.927,75.992 58.861,73.117 C54.794,70.241 53.391,64.854 55.537,60.359 L44.425,49.247 C43.328,49.896 42.145,50.387 40.911,50.706 L40.911,55.127 C45.609,56.787 48.427,61.591 47.584,66.501 C46.742,71.412 42.484,75.002 37.502,75.002 C32.519,75.002 28.261,71.412 27.419,66.501 C26.577,61.591 29.395,56.787 34.093,55.127 L34.093,50.706 C33.154,50.465 32.242,50.123 31.377,49.686 L19.827,61.233 C21.550,65.902 19.660,71.134 15.351,73.625 C11.041,76.116 5.564,75.142 2.377,71.319 C-0.810,67.495 -0.780,61.933 2.446,58.142 C5.673,54.353 11.161,53.436 15.443,55.972 L26.236,45.187 C25.345,43.886 24.687,42.440 24.293,40.913 L19.875,40.913 C18.215,45.610 13.411,48.429 8.501,47.586 C3.590,46.745 0.000,42.486 0.000,37.504 C0.000,32.523 3.590,28.265 8.501,27.423 C13.411,26.580 18.215,29.398 19.875,34.096 L24.296,34.096 C24.617,32.841 25.114,31.659 25.755,30.574 L14.643,19.463 C10.148,21.609 4.761,20.206 1.885,16.139 C-0.991,12.073 -0.518,6.527 3.004,3.005 C6.526,-0.517 12.073,-0.990 16.139,1.885 C20.206,4.762 21.609,10.148 19.463,14.643 L30.575,25.755 C31.672,25.105 32.855,24.615 34.090,24.296 L34.090,19.875 C29.392,18.215 26.574,13.411 27.416,8.501 C28.258,3.590 32.516,0.000 37.498,0.000 C42.481,0.000 46.739,3.590 47.581,8.501 C48.423,13.411 45.605,18.215 40.907,19.875 L40.907,24.296 C42.435,24.690 43.883,25.347 45.185,26.238 L55.971,15.448 C54.096,12.286 54.062,8.362 55.882,5.170 C57.701,1.977 61.093,0.005 64.769,0.006 L64.769,0.006 ZM10.228,61.362 C8.346,61.362 6.819,62.888 6.819,64.770 C6.819,66.653 8.346,68.180 10.228,68.180 C12.110,68.180 13.637,66.653 13.637,64.770 C13.637,62.888 12.110,61.362 10.228,61.362 L10.228,61.362 ZM64.769,61.362 C62.886,61.362 61.360,62.888 61.360,64.770 C61.360,66.653 62.886,68.180 64.769,68.180 C66.651,68.180 68.177,66.653 68.177,64.770 C68.177,62.888 66.651,61.362 64.769,61.362 L64.769,61.362 ZM37.498,61.362 C35.615,61.362 34.090,62.888 34.090,64.770 C34.090,66.653 35.615,68.180 37.498,68.180 C39.381,68.180 40.907,66.653 40.907,64.770 C40.907,62.888 39.381,61.362 37.498,61.362 L37.498,61.362 ZM37.498,30.684 C33.733,30.684 30.681,33.736 30.681,37.501 C30.681,41.266 33.733,44.318 37.498,44.318 C41.264,44.318 44.316,41.266 44.316,37.501 C44.316,33.736 41.264,30.684 37.498,30.684 L37.498,30.684 ZM64.769,34.093 C62.886,34.093 61.360,35.619 61.360,37.501 C61.360,39.383 62.886,40.909 64.769,40.909 C66.651,40.909 68.177,39.383 68.177,37.501 C68.177,35.619 66.651,34.093 64.769,34.093 L64.769,34.093 ZM10.228,34.093 C8.346,34.093 6.819,35.619 6.819,37.501 C6.819,39.383 8.346,40.909 10.228,40.909 C12.110,40.909 13.637,39.383 13.637,37.501 C13.637,35.619 12.110,34.093 10.228,34.093 L10.228,34.093 ZM64.769,6.823 C62.886,6.823 61.360,8.349 61.360,10.232 C61.360,12.115 62.886,13.640 64.769,13.640 C66.651,13.640 68.177,12.115 68.177,10.232 C68.177,8.349 66.651,6.823 64.769,6.823 L64.769,6.823 ZM37.498,6.823 C35.615,6.823 34.090,8.349 34.090,10.232 C34.090,12.115 35.615,13.640 37.498,13.640 C39.381,13.640 40.907,12.115 40.907,10.232 C40.907,8.349 39.381,6.823 37.498,6.823 L37.498,6.823 ZM10.228,6.823 C8.346,6.823 6.819,8.349 6.819,10.232 C6.819,12.115 8.346,13.640 10.228,13.640 C12.110,13.640 13.637,12.115 13.637,10.232 C13.637,8.349 12.110,6.823 10.228,6.823 L10.228,6.823 Z"/></svg>