<svg  xmlns="http://www.w3.org/2000/svg" xmlns:xlink="http://www.w3.org/1999/xlink" width="86px" height="86px"><path fill-rule="evenodd"  fill="rgb(255, 168, 171)" d="M82.873,26.446 C81.146,26.446 79.746,25.046 79.746,23.318 L79.746,9.382 C79.746,7.655 78.346,6.255 76.619,6.255 L9.382,6.255 C7.655,6.255 6.255,7.655 6.255,9.382 L6.255,76.619 C6.255,78.346 7.655,79.747 9.382,79.747 L24.627,79.747 C26.354,79.747 27.755,81.146 27.755,82.873 C27.755,84.600 26.354,86.001 24.627,86.001 L3.127,86.001 C1.400,86.001 -0.000,84.600 -0.000,82.873 L-0.000,3.127 C-0.000,1.401 1.400,0.001 3.127,0.001 L82.873,0.001 C84.600,0.001 86.000,1.401 86.000,3.127 L86.000,23.318 C86.000,25.046 84.600,26.446 82.873,26.446 ZM15.560,23.592 C14.199,23.592 13.095,22.488 13.095,21.127 L13.095,19.802 C13.095,18.441 14.199,17.337 15.560,17.337 L70.440,17.337 C71.801,17.337 72.905,18.441 72.905,19.802 L72.905,21.127 C72.905,22.488 71.801,23.592 70.440,23.592 L15.560,23.592 ZM43.547,51.240 L58.087,51.240 L46.755,39.909 C45.965,39.119 45.965,37.837 46.755,37.047 L48.315,35.486 C49.105,34.696 50.387,34.696 51.178,35.486 L62.547,46.855 L73.921,35.482 C74.709,34.692 75.989,34.692 76.777,35.482 L78.343,37.047 C79.132,37.836 79.132,39.115 78.343,39.904 L67.007,51.240 L81.200,51.240 C82.320,51.240 83.229,52.149 83.229,53.270 L83.229,55.467 C83.229,56.588 82.320,57.495 81.200,57.495 L65.495,57.495 L65.495,65.644 L81.221,65.644 C82.330,65.644 83.229,66.543 83.229,67.652 L83.229,69.891 C83.229,71.000 82.330,71.898 81.221,71.898 L65.495,71.898 L65.495,83.996 C65.495,85.100 64.600,85.995 63.495,85.995 L61.241,85.995 C60.136,85.995 59.241,85.100 59.241,83.996 L59.241,71.898 L43.526,71.898 C42.417,71.898 41.518,71.000 41.518,69.891 L41.518,67.652 C41.518,66.543 42.417,65.644 43.526,65.644 L59.241,65.644 L59.241,57.495 L43.547,57.495 C42.426,57.495 41.518,56.588 41.518,55.467 L41.518,53.270 C41.518,52.149 42.426,51.240 43.547,51.240 Z"/></svg>