<svg  xmlns="http://www.w3.org/2000/svg" xmlns:xlink="http://www.w3.org/1999/xlink" width="25px" height="23px"><path fill-rule="evenodd"  fill="rgb(25, 94, 203)" d="M24.088,23.004 L0.915,23.004 C0.409,23.004 0.000,22.592 0.000,22.083 C0.000,21.574 0.409,21.163 0.915,21.163 L2.135,21.163 L2.135,9.505 C2.135,9.088 2.415,8.726 2.811,8.616 L11.282,6.345 L11.282,0.915 C11.282,0.627 11.530,0.357 11.757,0.185 C11.982,0.013 12.383,-0.048 12.663,0.026 L21.734,2.480 C22.130,2.591 22.258,2.953 22.258,3.370 L22.258,21.163 L24.088,21.163 C24.594,21.163 25.003,21.574 25.003,22.083 C25.003,22.592 24.594,23.004 24.088,23.004 ZM11.282,8.247 L3.964,10.211 L3.964,21.163 L11.282,21.163 L11.282,8.247 ZM20.429,4.075 L13.111,2.112 L13.111,21.163 L20.429,21.163 L20.429,4.075 ZM16.160,6.438 L18.139,6.438 C18.322,6.438 18.566,6.555 18.675,6.704 C19.225,7.458 18.703,8.278 17.990,8.278 L16.011,8.278 C15.828,8.278 15.583,8.160 15.475,8.011 C14.925,7.258 15.448,6.438 16.160,6.438 ZM17.990,13.187 L16.012,13.187 C15.828,13.187 15.584,13.069 15.475,12.921 C14.925,12.167 15.447,11.346 16.160,11.346 L18.139,11.346 C18.322,11.346 18.566,11.464 18.675,11.612 C19.225,12.366 18.703,13.187 17.990,13.187 ZM16.160,16.254 L18.139,16.254 C18.322,16.254 18.566,16.372 18.675,16.521 C19.225,17.274 18.703,18.095 17.990,18.095 L16.011,18.095 C15.828,18.095 15.583,17.977 15.475,17.828 C14.925,17.075 15.448,16.254 16.160,16.254 ZM7.013,11.346 L8.992,11.346 C9.175,11.346 9.419,11.464 9.528,11.612 C10.078,12.366 9.556,13.187 8.843,13.187 L6.864,13.187 C6.681,13.187 6.437,13.069 6.328,12.921 C5.778,12.167 6.300,11.346 7.013,11.346 ZM7.013,16.254 L8.992,16.254 C9.175,16.254 9.419,16.372 9.528,16.521 C10.078,17.274 9.556,18.095 8.843,18.095 L6.864,18.095 C6.680,18.095 6.436,17.977 6.328,17.828 C5.778,17.075 6.301,16.254 7.013,16.254 Z"/></svg>