<?xml version="1.0" encoding="UTF-8"?>
<svg width="21px" height="21px" viewBox="0 0 21 21" version="1.1" xmlns="http://www.w3.org/2000/svg" xmlns:xlink="http://www.w3.org/1999/xlink">
    <title>无纸化</title>
    <g id="页面-1" stroke="none" stroke-width="1" fill="none" fill-rule="evenodd">
        <g id="画板" transform="translate(-157.000000, -37.000000)" fill="#EB6524">
            <g id="无纸化" transform="translate(157.000000, 37.000000)">
                <path d="M20.3545619,12.3084046 C20.3449796,12.2911168 20.3322032,12.2754755 20.3178297,12.2623038 C20.2267976,12.1717486 20.0790701,12.1717486 19.988038,12.2623038 L16.8434382,15.4210338 L15.6049226,14.1754882 L18.750321,11.015935 C18.7638959,11.0027633 18.7758738,10.987122 18.7870532,10.9706574 C18.8181958,10.9163243 18.8269796,10.8537589 18.8118075,10.7928399 C18.7966355,10.7327442 18.7575077,10.6808808 18.7040064,10.6504213 C16.8665955,9.56293566 14.5332992,9.86176782 13.0232845,11.3773326 C11.8430614,12.561136 11.3799157,14.289917 11.8095232,15.9116783 L10.0391886,17.6429291 C10.0136358,17.6700956 9.99926227,17.7063177 10.0000292,17.7450095 C10.0016578,17.782878 10.0176284,17.8191001 10.0447783,17.8446202 L13.1430635,20.9547797 C13.1965648,21.0132289 13.2867984,21.0148754 13.3434938,20.9605423 L15.1138285,19.2317612 C16.7260547,19.6647797 18.4452836,19.2004785 19.6287008,18.0142054 C21.13632,16.5044033 21.4349691,14.1540842 20.3545619,12.3084046 Z M18.7008123,17.0798404 C17.6651226,18.1179323 16.0848374,18.3665474 14.7848353,17.6956157 L14.6251299,17.8569686 L13.199759,19.24164 L11.7544249,17.7902871 L12.3780746,17.2123803 L13.3418968,16.2442629 C12.6751266,14.9394448 12.9234686,13.3497894 13.9551656,12.3149905 C14.6482871,11.6177154 15.6081167,11.2587876 16.5839169,11.332055 L14.1579915,13.7671666 C14.0485933,13.876656 13.9871067,14.0264837 13.9871067,14.182074 C13.9871067,14.3376643 14.0485933,14.487492 14.1579915,14.5969815 L16.4305997,16.8789725 C16.6589784,17.1086534 17.027898,17.1086534 17.2570752,16.8789725 L19.680605,14.4455073 C19.7500769,15.4251499 19.3923368,16.3875047 18.7008123,17.0798404 Z" id="形状"></path>
                <path d="M17.6754441,9.71851821 L17.6754441,2.08542379 C17.6754441,1.64838737 17.3170444,1.29369114 16.8736549,1.29369114 L2.12554332,1.29369114 C1.68295565,1.29369114 1.32375406,1.64838737 1.32375406,2.08542379 L1.32375406,17.1251771 C1.32375406,17.5622135 1.68295565,17.9169097 2.12554332,17.9169097 L8.61442377,17.9169097 L8.61442377,19 L0.801789256,19 C0.359201587,19 0,18.6453038 0,18.2082674 L0,0.791732644 C0,0.354696225 0.359201587,0 0.801789256,0 L18.1982107,0 C18.6407984,0 19,0.354696225 19,0.791732644 L19,9.71851821 L17.6754441,9.71851821 Z M3.53348525,8.20630886 L11.0470524,8.20630886 L11.0470524,9.5 L3.53348525,9.5 L3.53348525,8.20630886 Z M3.53348525,4.53504459 L15.2428155,4.53504459 L15.2428155,5.82952746 L3.53348525,5.82952746 L3.53348525,4.53504459 Z" id="形状"></path>
            </g>
        </g>
    </g>
</svg>