<?xml version="1.0" encoding="UTF-8"?>
<svg width="23px" height="21px" viewBox="0 0 23 21" version="1.1" xmlns="http://www.w3.org/2000/svg" xmlns:xlink="http://www.w3.org/1999/xlink">
    <title>建筑空间</title>
    <g id="页面-1" stroke="none" stroke-width="1" fill="none" fill-rule="evenodd">
        <g id="画板" transform="translate(-92.000000, -37.000000)" fill="#EB6524">
            <g id="建筑空间" transform="translate(92.000000, 37.000000)">
                <path d="M22.158301,21 L0.841698996,21 C0.376234852,21 0,20.6239722 0,20.1594135 C0,19.6948549 0.376234852,19.3197397 0.841698996,19.3197397 L1.96396432,19.3197397 L1.96396432,8.67961246 C1.96396432,8.29902118 2.22153342,7.9686278 2.5858097,7.86823202 L10.3781946,5.79551551 L10.3781946,0.839614753 C10.3781946,0.576760348 10.6063272,0.330334344 10.8151422,0.173351852 C11.0221173,0.01636936 11.3909931,-0.0393046633 11.6485622,0.0282343158 L19.9928809,2.26797289 C20.3571571,2.36928136 20.474903,2.69967474 20.474903,3.08026602 L20.474903,19.3197397 L22.158301,19.3197397 C22.6237651,19.3197397 23,19.6948549 23,20.1594135 C23,20.6239722 22.6237651,21 22.158301,21 Z M10.3781946,7.53144981 L3.64644243,9.32397082 L3.64644243,19.3197397 L10.3781946,19.3197397 L10.3781946,7.53144981 Z M18.7924249,3.7237117 L12.0606727,1.93210337 L12.0606727,19.3197397 L18.7924249,19.3197397 L18.7924249,3.7237117 Z M14.8654162,5.88039558 L16.6858777,5.88039558 C16.8542175,5.88039558 17.0786706,5.98718018 17.1789385,6.12317083 C17.6848778,6.81133827 17.2046954,7.55974317 16.5488141,7.55974317 L14.7283526,7.55974317 C14.5600128,7.55974317 14.3346398,7.45204588 14.2352918,7.31605523 C13.7293525,6.62880048 14.2104547,5.88039558 14.8654162,5.88039558 Z M16.5488141,12.040133 L14.7292725,12.040133 C14.5600128,12.040133 14.3355597,11.9324357 14.2352918,11.7973578 C13.7293525,11.1091903 14.2095349,10.3598727 14.8654162,10.3598727 L16.6858777,10.3598727 C16.8542175,10.3598727 17.0786706,10.46757 17.1789385,10.602648 C17.6848778,11.2908154 17.2046954,12.040133 16.5488141,12.040133 Z M14.8654162,14.8393499 L16.6858777,14.8393499 C16.8542175,14.8393499 17.0786706,14.9470472 17.1789385,15.0830378 C17.6848778,15.7702926 17.2046954,16.5196102 16.5488141,16.5196102 L14.7283526,16.5196102 C14.5600128,16.5196102 14.3346398,16.4119129 14.2352918,16.2759222 C13.7293525,15.5886675 14.2104547,14.8393499 14.8654162,14.8393499 Z M6.45118586,10.3598727 L8.2716474,10.3598727 C8.4399872,10.3598727 8.66444027,10.46757 8.76470824,10.602648 C9.27064752,11.2908154 8.79046514,12.040133 8.13458385,12.040133 L6.31412231,12.040133 C6.14578251,12.040133 5.92132944,11.9324357 5.82106147,11.7973578 C5.31512219,11.1091903 5.79530456,10.3598727 6.45118586,10.3598727 Z M6.45118586,14.8393499 L8.2716474,14.8393499 C8.4399872,14.8393499 8.66444027,14.9470472 8.76470824,15.0830378 C9.27064752,15.7702926 8.79046514,16.5196102 8.13458385,16.5196102 L6.31412231,16.5196102 C6.14486262,16.5196102 5.92040955,16.4119129 5.82106147,16.2759222 C5.31512219,15.5886675 5.79622445,14.8393499 6.45118586,14.8393499 Z" id="形状"></path>
            </g>
        </g>
    </g>
</svg>