<?xml version="1.0" encoding="UTF-8"?>
<svg width="20px" height="20px" viewBox="0 0 20 20" version="1.1" xmlns="http://www.w3.org/2000/svg" xmlns:xlink="http://www.w3.org/1999/xlink">
    <title>saas模式</title>
    <g id="页面-1" stroke="none" stroke-width="1" fill="none" fill-rule="evenodd">
        <g id="画板" transform="translate(-191.000000, -37.000000)" fill="#EB6524">
            <g id="saas模式" transform="translate(191.000000, 37.000000)">
                <path d="M19.2729651,6.15041354 C18.8713648,6.15041354 18.5459301,5.82419696 18.5459301,5.42258127 L18.5459301,2.18118869 C18.5459301,1.78034237 18.2197261,1.45412579 17.8181259,1.45412579 L2.18187413,1.45412579 C1.77950454,1.45412579 1.45406986,1.78034237 1.45406986,2.18118869 L1.45406986,17.8180419 C1.45406986,18.220427 1.77950454,18.5458742 2.18187413,18.5458742 L5.72703493,18.5458742 C6.12863517,18.5458742 6.45406986,18.8713214 6.45406986,19.2729371 C6.45406986,19.6745528 6.12863517,20 5.72703493,20 L0.727034928,20 C0.325434682,20 0,19.6745528 0,19.2729371 L0,0.727062897 C0,0.325447201 0.325434682,0 0.727034928,0 L19.2729651,0 C19.6745653,0 20,0.325447201 20,0.727062897 L20,5.42258127 C20,5.82419696 19.6745653,6.15041354 19.2729651,6.15041354 Z M3.61824896,5.4864397 C3.30204647,5.4864397 3.04508386,5.22946721 3.04508386,4.91248317 L3.04508386,4.60473168 C3.04508386,4.28774764 3.30204647,4.03154453 3.61824896,4.03154453 L16.381751,4.03154453 C16.6979535,4.03154453 16.9541468,4.28774764 16.9541468,4.60473168 L16.9541468,4.91248317 C16.9541468,5.22946721 16.6979535,5.4864397 16.381751,5.4864397 L3.61824896,5.4864397 Z M10.1269426,11.9161377 L13.508232,11.9161377 L10.8732113,9.28101558 C10.6893368,9.09713406 10.6893368,8.79861512 10.8732113,8.61550298 L11.2355747,8.25235622 C11.4202185,8.06847471 11.7179566,8.06847471 11.9018311,8.25235622 L14.5453147,10.8967109 L17.190337,8.25158684 C17.3742114,8.06770533 17.6719495,8.06770533 17.8550546,8.25158684 L18.2189568,8.61550298 C18.4028312,8.79861512 18.4028312,9.09636469 18.2189568,9.2802462 L15.5823973,11.9161377 L18.8836744,11.9161377 C19.1444838,11.9161377 19.3552854,12.1277169 19.3552854,12.3885363 L19.3552854,12.8994037 C19.3552854,13.1602231 19.1444838,13.3710329 18.8836744,13.3710329 L15.2315741,13.3710329 L15.2315741,15.2660127 L18.8882905,15.2660127 C19.1460225,15.2660127 19.3552854,15.4752837 19.3552854,15.7330256 L19.3552854,16.253895 C19.3552854,16.5116369 19.1460225,16.7209079 18.8882905,16.7209079 L15.2315741,16.7209079 L15.2315741,19.5337565 C15.2315741,19.790729 15.0230805,19.9984612 14.7661179,19.9984612 L14.2421911,19.9984612 C13.9852285,19.9984612 13.7767349,19.790729 13.7767349,19.5337565 L13.7767349,16.7209079 L10.1223265,16.7209079 C9.8638252,16.7209079 9.65533159,16.5116369 9.65533159,16.253895 L9.65533159,15.7330256 C9.65533159,15.4752837 9.8638252,15.2660127 10.1223265,15.2660127 L13.7767349,15.2660127 L13.7767349,13.3710329 L10.1269426,13.3710329 C9.86613325,13.3710329 9.65533159,13.1602231 9.65533159,12.8994037 L9.65533159,12.3885363 C9.65533159,12.1277169 9.86613325,11.9161377 10.1269426,11.9161377 Z" id="形状"></path>
            </g>
        </g>
    </g>
</svg>