<svg  xmlns="http://www.w3.org/2000/svg" xmlns:xlink="http://www.w3.org/1999/xlink" width="26px" height="27px"><path fill-rule="evenodd"  fill="rgb(25, 94, 203)" d="M25.091,16.440 C25.079,16.419 25.063,16.400 25.045,16.384 C24.931,16.274 24.746,16.274 24.632,16.384 L20.694,20.221 L19.143,18.708 L23.082,14.870 C23.099,14.854 23.114,14.835 23.128,14.815 C23.167,14.749 23.178,14.673 23.159,14.599 C23.140,14.526 23.091,14.463 23.024,14.426 C20.723,13.105 17.801,13.468 15.910,15.309 C14.432,16.747 13.852,18.847 14.390,20.817 L12.173,22.920 C12.141,22.953 12.123,22.997 12.124,23.044 C12.126,23.090 12.146,23.134 12.180,23.165 L16.060,26.943 C16.127,27.014 16.240,27.016 16.311,26.950 L18.528,24.850 C20.547,25.376 22.700,24.812 24.182,23.371 C26.070,21.537 26.444,18.682 25.091,16.440 ZM23.020,22.236 C21.723,23.497 19.744,23.799 18.116,22.984 L17.916,23.180 L16.131,24.862 L14.321,23.099 L15.102,22.397 L16.309,21.221 C15.474,19.636 15.785,17.705 17.077,16.448 C17.945,15.601 19.147,15.165 20.369,15.254 L17.331,18.212 C17.194,18.345 17.117,18.527 17.117,18.716 C17.117,18.905 17.194,19.087 17.331,19.220 L20.177,21.992 C20.463,22.271 20.925,22.271 21.212,21.992 L24.247,19.036 C24.334,20.226 23.886,21.395 23.020,22.236 Z"/><path fill-rule="evenodd"  fill="rgb(25, 94, 203)" d="M22.045,12.275 L22.045,2.634 C22.045,2.082 21.598,1.634 21.045,1.634 L2.651,1.634 C2.099,1.634 1.651,2.082 1.651,2.634 L1.651,21.630 C1.651,22.182 2.099,22.630 2.651,22.630 L10.744,22.630 L10.744,23.998 L1.000,23.998 C0.448,23.998 -0.000,23.550 -0.000,22.998 L-0.000,1.000 C-0.000,0.448 0.448,0.000 1.000,0.000 L22.697,0.000 C23.249,0.000 23.697,0.448 23.697,1.000 L23.697,12.275 L22.045,12.275 ZM4.407,10.365 L13.778,10.365 L13.778,11.999 L4.407,11.999 L4.407,10.365 ZM4.407,5.728 L19.011,5.728 L19.011,7.363 L4.407,7.363 L4.407,5.728 Z"/></svg>