<?xml version="1.0" encoding="UTF-8"?>
<svg width="19px" height="22px" viewBox="0 0 19 22" version="1.1" xmlns="http://www.w3.org/2000/svg" xmlns:xlink="http://www.w3.org/1999/xlink">
    <title>AI</title>
    <g id="页面-1" stroke="none" stroke-width="1" fill="none" fill-rule="evenodd">
        <g id="画板" transform="translate(-127.000000, -36.000000)" fill="#EB6524" fill-rule="nonzero">
            <g id="AI" transform="translate(127.000000, 36.000000)">
                <path d="M9.17898331,0 C4.69409099,0 1.02858182,3.32273333 1.02858182,7.46533333 C1.02858182,8.00873333 1.09227945,8.5448 1.21677937,9.0662 L0.0629836352,11.6834667 C-0.0297096693,11.8936149 -0.0196342122,12.1356623 0.0901941619,12.3371577 C0.200022535,12.5386532 0.396859102,12.6762148 0.621785586,12.7086667 C1.84941267,12.8861333 2.35609838,13.4229333 2.35609838,14.4804 L2.35609838,17.0368 C2.35609838,17.8468176 3.00424386,18.5034667 3.80377182,18.5034667 L4.27209418,18.5034667 C5.07162215,18.5034667 5.71976763,19.1601157 5.71976763,19.9701333 L5.71976763,21.2666667 C5.71976763,21.6716754 6.04384037,22 6.44360435,22 L14.261041,22 C14.6608049,22 14.9848777,21.6716754 14.9848777,21.2666667 C14.9848777,20.8616579 14.6608049,20.5333333 14.261041,20.5333333 L7.16744107,20.5333333 L7.16744107,19.9694 C7.16744107,18.3493647 5.87115012,17.0360667 4.27209418,17.0360667 L3.80304799,17.0360667 L3.80304799,14.4796667 C3.80304799,12.9748667 3.07486824,11.9430667 1.74011333,11.4744667 L2.64201388,9.42846667 C2.71136081,9.27138615 2.72391727,9.09458741 2.67748188,8.92906667 C2.54372088,8.45272223 2.47599668,7.95984596 2.47625527,7.4646 C2.47625527,4.1712 5.46063408,1.46593333 9.17898331,1.46593333 C12.8973326,1.46593333 15.8817114,4.17046667 15.8817114,7.4646 C15.8817114,7.86960878 16.2057841,8.19793333 16.6055481,8.19793333 C17.0053121,8.19793333 17.3293848,7.86960878 17.3293848,7.4646 C17.3293848,3.32273333 13.6631518,0 9.17898331,0 Z M18.2761633,9.53333333 C17.8763993,9.53333333 17.5523266,9.86165789 17.5523266,10.2666667 L17.5523266,18.5166667 C17.5523266,18.9216754 17.8763993,19.25 18.2761633,19.25 C18.6759272,19.25 19,18.9216754 19,18.5166667 L19,10.2666667 C19,9.86165789 18.6759272,9.53333333 18.2761633,9.53333333 Z" id="形状"></path>
                <path d="M13.8763711,10.421872 C13.641583,9.84341838 12.9084301,9.86441358 12.7005116,10.4566227 L10.0455512,18.0076504 C9.91482139,18.3793005 10.0750765,18.8005117 10.403491,18.948452 C10.7319056,19.0963923 11.1041157,18.9150397 11.2348455,18.5433897 L11.8867502,16.6900215 C11.8982657,16.6907454 11.9085017,16.6972611 11.9200172,16.6972611 L15.0157649,16.6972611 L15.7789861,18.5774164 C15.9264988,18.9406698 16.3062991,19.0998193 16.6272939,18.9328866 C16.9482886,18.765954 17.0889236,18.3361533 16.9414108,17.9728998 L13.8763711,10.421872 L13.8763711,10.421872 Z M12.3927921,15.2485932 L13.337702,12.5626572 L14.4278352,15.2485932 L12.3927921,15.2485932 Z" id="形状"></path>
            </g>
        </g>
    </g>
</svg>