<svg  xmlns="http://www.w3.org/2000/svg" xmlns:xlink="http://www.w3.org/1999/xlink" width="32px" height="46px"><path fill-rule="evenodd"  opacity="0.4" fill="rgb(0, 0, 0)" d="M29.658,28.881 C27.969,33.815 24.253,40.634 16.133,45.212 L16.118,45.196 L16.065,45.233 C7.919,40.655 4.192,33.823 2.500,28.881 C0.658,23.504 0.763,19.245 0.768,19.066 L0.785,18.510 L1.283,18.249 C1.397,18.190 3.950,16.863 7.589,15.551 L7.589,17.599 C5.428,18.408 3.734,19.185 2.877,19.598 L2.706,19.680 L2.713,19.867 C2.775,21.436 3.071,24.624 4.362,28.357 C5.048,30.339 5.926,32.169 6.954,33.874 L6.954,25.462 L8.325,24.756 L8.325,10.017 L13.214,5.849 L14.745,6.928 L14.745,4.663 L19.633,0.766 L23.729,4.031 L23.729,24.719 L25.172,25.462 L25.172,33.928 C26.215,32.208 27.104,30.360 27.797,28.357 C29.088,24.625 29.384,21.436 29.446,19.867 L29.453,19.680 L29.283,19.598 C28.405,19.176 26.672,18.381 24.466,17.560 L24.466,15.514 C28.163,16.838 30.760,18.189 30.876,18.249 L31.374,18.510 L31.391,19.066 C31.396,19.245 31.500,23.504 29.658,28.881 ZM16.080,43.019 L16.233,42.925 C16.734,42.615 17.206,42.279 17.680,41.945 L17.680,13.701 L14.930,16.138 L14.930,42.251 C15.262,42.475 15.581,42.712 15.925,42.925 L16.080,43.019 ZM9.739,10.711 L9.739,37.689 C10.568,38.633 11.457,39.526 12.421,40.352 L12.421,8.577 L9.739,10.711 ZM13.577,41.287 C13.580,41.289 13.582,41.291 13.584,41.293 L13.584,41.287 L13.577,41.287 ZM18.841,10.350 L18.841,3.581 L16.080,5.708 L16.080,7.868 L17.309,8.733 L17.309,11.033 L13.711,15.005 L18.472,10.947 L22.568,13.831 L18.841,10.350 Z"/></svg>