<svg  xmlns="http://www.w3.org/2000/svg" xmlns:xlink="http://www.w3.org/1999/xlink" width="68px" height="99px"><path fill-rule="evenodd"  fill="rgb(255, 255, 255)" d="M63.938,62.595 C60.199,73.579 51.975,88.760 34.007,98.951 L33.975,98.919 L33.855,99.000 C15.830,88.808 7.583,73.596 3.839,62.595 C-0.237,50.623 -0.006,41.139 0.006,40.742 L0.043,39.503 L1.144,38.923 C1.398,38.790 7.046,35.836 15.100,32.916 L15.100,37.476 C10.317,39.277 6.569,41.009 4.671,41.926 L4.293,42.109 L4.310,42.525 C4.446,46.019 5.102,53.116 7.959,61.428 C9.485,65.866 11.402,69.995 13.695,73.811 L13.695,54.981 L16.729,53.411 L16.729,20.594 L27.546,11.317 L30.936,13.718 L30.936,8.676 L41.754,-0.000 L50.816,7.269 L50.816,53.327 L54.010,54.981 L54.010,73.925 C56.334,70.077 58.277,65.911 59.818,61.428 C62.675,53.119 63.331,46.019 63.468,42.525 L63.484,42.109 L63.106,41.925 C61.165,40.987 57.329,39.218 52.447,37.390 L52.447,32.834 C60.629,35.782 66.375,38.788 66.632,38.923 L67.734,39.503 L67.771,40.742 C67.783,41.139 68.014,50.623 63.938,62.595 ZM33.889,94.072 L34.229,93.861 C35.329,93.176 36.389,92.456 37.430,91.718 L37.430,28.796 L31.344,34.224 L31.344,92.426 C32.066,92.916 32.800,93.395 33.548,93.861 L33.889,94.072 ZM19.858,22.140 L19.858,82.278 C21.686,84.370 23.668,86.328 25.792,88.158 L25.792,17.389 L19.858,22.140 ZM28.316,90.215 C28.333,90.228 28.350,90.241 28.367,90.255 L28.367,90.215 L28.316,90.215 ZM39.999,21.337 L39.999,6.266 L33.889,11.002 L33.889,15.810 L36.609,17.738 L36.609,22.856 L28.648,31.701 L39.184,22.666 L48.247,29.086 L39.999,21.337 Z"/></svg>