<svg  xmlns="http://www.w3.org/2000/svg" xmlns:xlink="http://www.w3.org/1999/xlink" width="16px" height="18px"><path fill-rule="evenodd"  opacity="0.702" fill="rgb(255, 255, 255)" d="M14.000,18.000 L13.000,18.000 C11.896,18.000 11.000,17.104 11.000,16.000 L11.000,2.000 C11.000,0.896 11.896,0.000 13.000,0.000 L14.000,0.000 C15.105,0.000 16.000,0.896 16.000,2.000 L16.000,16.000 C16.000,17.104 15.105,18.000 14.000,18.000 ZM3.000,18.000 L2.000,18.000 C0.896,18.000 -0.000,17.104 -0.000,16.000 L-0.000,2.000 C-0.000,0.896 0.896,0.000 2.000,0.000 L3.000,0.000 C4.105,0.000 5.000,0.896 5.000,2.000 L5.000,16.000 C5.000,17.104 4.105,18.000 3.000,18.000 Z"/></svg>