<?xml version="1.0" encoding="UTF-8"?>
<svg width="136px" height="112px" viewBox="0 0 136 112" version="1.1" xmlns="http://www.w3.org/2000/svg" xmlns:xlink="http://www.w3.org/1999/xlink">
    <title>企业微信01</title>
    <g id="页面-1" stroke="none" stroke-width="1" fill="none" fill-rule="evenodd">
        <g id="图标补充" transform="translate(-225.000000, -202.000000)" fill-rule="nonzero">
            <g id="企业微信01" transform="translate(225.000000, 202.000000)">
                <path d="M91.150829,89.1415496 C90.4349706,89.848067 90.4349706,90.9893644 91.1150361,91.6958818 C91.1866219,91.786461 91.2761042,91.8589243 91.383483,91.9132718 C95.3386009,95.6089014 97.8977948,100.590755 98.6136532,105.989273 C99.7232338,110.047219 103.928902,112.456625 107.991399,111.333443 C112.018102,110.264609 114.416228,106.097968 113.360337,102.040022 C113.360337,102.021906 113.342441,102.00379 113.342441,101.967558 C112.501307,98.9240986 109.888424,96.6958513 106.774439,96.3878822 C101.76343,95.4639748 97.1998328,92.9096425 93.7458158,89.1234338 C93.0120609,88.4350322 91.8666874,88.4350322 91.150829,89.1415496 L91.150829,89.1415496 Z" id="路径" fill="#FA6500"></path>
                <path d="M49.9677547,0.975414462 C35.8874039,2.50619568 23.0971377,8.46333221 13.919108,17.7586784 C10.343731,21.3366489 7.37653669,25.4679139 5.10967394,29.986485 C-1.83835253,43.8004022 -0.67727649,60.3070189 8.15058738,72.9959042 C10.6386075,76.7214199 14.7484481,81.369093 18.4896931,84.6704163 L16.7941535,97.8203803 L16.6098557,98.3736747 C16.5545663,98.539663 16.5545663,98.7240945 16.5361366,98.8900828 L16.499277,99.3142752 L16.5361366,99.7384676 C16.7572939,102.080747 18.8398589,103.79596 21.1804407,103.593085 C21.825483,103.537756 22.4336657,103.334881 22.986559,103.021348 L23.0602781,103.021348 L23.318295,102.836916 L27.3728463,100.845056 L39.4443512,94.8510336 C45.1760123,96.4740305 51.1288307,97.285529 57.1000789,97.2486427 C64.4719903,97.2670859 71.8070421,96.0129519 78.7550686,93.523127 C75.2902702,92.4165382 73.060267,89.0414422 73.4104328,85.4081422 C66.2228192,87.6950925 58.6297505,88.4328184 51.1472605,87.6028767 L49.9493249,87.4368884 C47.2401474,87.0864686 44.5678296,86.5331742 41.950801,85.7954483 C40.5132783,85.3528128 38.9836067,85.5188011 37.6566627,86.2380839 L37.3249266,86.4040722 L27.3912761,92.1767772 L26.9673912,92.4349813 C26.727804,92.5640833 26.6172254,92.6194128 26.4882169,92.6194128 C26.1196214,92.6009696 25.8431747,92.2874361 25.8616045,91.9185732 L26.2302,90.4062351 L26.6725147,88.764795 L27.3912761,86.0536524 L28.2206161,83.0289762 C28.7735095,81.3322067 28.1653268,79.487892 26.7093743,78.4550757 C22.820691,75.5963879 19.4296118,72.1106331 16.6835748,68.1269133 C9.69868877,58.1307276 8.75877007,45.1098657 14.2324143,34.2284088 C16.0569623,30.6319951 18.4528335,27.3306718 21.3094492,24.471984 C28.8472286,16.7996347 39.4259214,11.9122007 51.1472605,10.6580667 C55.2018117,10.2154312 59.2932225,10.2154312 63.3477738,10.6580667 C74.9953938,11.9859733 85.537227,16.9287368 93.0381469,24.5641997 C95.8763327,27.4597738 98.2353444,30.7610971 100.023033,34.375954 C102.326755,38.9498545 103.524691,44.02172 103.543121,49.1489149 C103.543121,49.6837662 103.487831,50.2186174 103.469401,50.7350255 C106.565604,48.8538245 110.546436,49.3149032 113.126605,51.8600575 L113.476771,52.2842499 C114.084954,44.6856733 112.592142,37.0686535 109.182633,30.244689 C106.95263,25.726118 104.003865,21.6132962 100.465348,18.0168825 C90.7897139,8.42644592 78.0915965,2.46930938 64.5457094,1.10451649 C59.6802479,0.477449488 54.7963566,0.459006341 49.9677547,0.975414462 L49.9677547,0.975414462 Z" id="路径" fill="#0180F0"></path>
                <path d="M126.000448,74.8774943 C124.716222,75.2215039 123.539015,75.9095232 122.575846,76.8691291 L122.558009,76.8691291 C121.327293,78.1003215 120.560324,79.7117352 120.38196,81.4498892 C119.454463,86.4832937 116.903848,91.0640538 113.158189,94.4860446 C112.444731,95.1740639 112.426894,96.3147275 113.10468,97.0389583 L113.122517,97.0570641 C113.835975,97.781295 114.995346,97.7994007 115.726641,97.0751699 C115.815823,96.984641 115.887169,96.9122179 115.940679,96.8035833 C119.668501,92.8384194 124.62704,90.2855056 129.977981,89.5974863 C134.044696,88.4930343 136.434783,84.3106011 135.346758,80.2549083 C134.240897,76.1811098 130.067163,73.7730422 126.000448,74.8774943 L126.000448,74.8774943 Z" id="路径" fill="#0281F1"></path>
                <path d="M96.5590824,68.0754463 L96.4346391,68.202054 C92.7191178,72.3077634 87.688053,74.9484399 82.2303255,75.6538261 C78.2125847,76.7209488 75.7948292,80.844745 76.861486,84.8961939 C77.1992607,86.2165321 77.9103653,87.4283494 78.8703564,88.3869512 C81.839218,91.3531905 86.6391738,91.3531905 89.6080353,88.3688644 C90.8169131,87.1389602 91.5813505,85.5292328 91.7769042,83.8109844 C92.7191178,78.7828469 95.2613166,74.2068801 99.0123932,70.7884701 C99.7412753,70.1192575 99.8123858,68.9797875 99.1723917,68.2382277 L99.1546141,68.2201409 C98.4435095,67.4604942 97.3057422,67.4062337 96.5590824,68.0754463 L96.5590824,68.0754463 Z" id="路径" fill="#FFCC03"></path>
                <path d="M104.184782,53.8882469 C102.913005,54.2327464 101.748702,54.9217456 100.835171,55.846455 C97.8975441,58.7837671 97.8617194,63.570498 100.763522,66.5440732 L100.853084,66.634731 C102.089036,67.8676768 103.701149,68.6292022 105.420735,68.8286493 C110.436196,69.7533587 115.02176,72.2917766 118.478846,76.0631403 C119.19534,76.7884026 120.341731,76.7884026 121.058225,76.0812719 C121.77472,75.3922728 121.792632,74.2499847 121.111963,73.5247224 C121.022401,73.4340647 120.914927,73.3434069 120.807452,73.2708807 C116.848821,69.5720432 114.287353,64.6039967 113.570859,59.2007929 C112.478205,55.1393243 108.268801,52.7640904 104.184782,53.8882469 L104.184782,53.8882469 Z" id="路径" fill="#2FBB00"></path>
            </g>
        </g>
    </g>
</svg>