<?xml version="1.0" encoding="UTF-8"?>
<svg width="84px" height="112px" viewBox="0 0 84 112" version="1.1" xmlns="http://www.w3.org/2000/svg" xmlns:xlink="http://www.w3.org/1999/xlink">
    <title>html</title>
    <g id="页面-1" stroke="none" stroke-width="1" fill="none" fill-rule="evenodd">
        <g id="图标补充" transform="translate(-422.000000, -202.000000)" fill-rule="nonzero">
            <g id="html" transform="translate(422.000000, 202.000000)">
                <path d="M81.1474343,108.610941 L81.0983729,108.63895 L81.0142678,108.673961 C79.2620776,110.7186 76.8020025,112 74.1036295,112 L9.90337915,112 C7.20500614,112 4.74493109,110.7186 2.93667076,108.63895 L2.93667076,108.610941 L2.90863572,108.63895 C1.10037551,106.538293 0,103.604376 0,100.460394 L0,11.5466084 C0,8.39562365 1.10037551,5.52472657 2.90863583,3.45207878 C4.7449312,1.33741797 7.19799748,0 9.90337926,0 L53.6520651,0 C54.6262829,0 55.5934919,0.518161893 56.2733417,1.28140047 L82.9276595,32.4201313 C83.6635794,33.337418 84,34.4087528 84,35.5361051 L84,35.5991248 L84,100.467396 C84,103.604376 82.8996245,106.475274 81.1474343,108.610941 Z" id="路径" fill="#FA6500"></path>
                <path d="M29.6628913,57.1042928 C30.9625744,56.1771419 31.3981438,54.0892829 30.597258,52.6242429 C29.8314989,51.0388855 28.0681452,50.5363839 26.7684621,51.4635348 L8.29891303,64.1747034 C6.59878716,65.4486513 6.53555934,68.4990486 8.29891303,69.780074 L26.7614369,82.5266301 C28.06112,83.4537811 29.8244737,82.9866668 30.5902328,81.4083869 C31.3911185,79.8654945 30.9555491,77.8554879 29.655866,76.9283369 L15.268024,66.9632338 L29.6628913,57.1042928 Z" id="路径" fill="#FFFFFF"></path>
                <path d="M50.2215024,42.220544 C48.7582202,41.5706403 47.1472027,42.4092257 46.5492268,44.0514556 L32.1978053,86.6026802 C31.6279695,88.2029808 32.3314705,90.1107628 33.7666127,90.7606665 C35.2721049,91.4455113 36.8690523,90.6069259 37.4740632,88.929755 L51.8254847,46.3435893 C52.3601455,44.7432887 51.6214694,42.9053889 50.2215024,42.220544 Z" id="路径" fill="#FFFFFF"></path>
                <path d="M53.4102287,52.6236403 C52.6106985,54.0881369 53.0104636,56.1752213 54.343014,57.1020283 L68.7135174,66.9573119 L54.343014,76.9257933 C53.0104636,77.8526004 52.6106985,79.8618614 53.4102287,81.4041814 C54.2097589,82.9889507 55.9420743,83.4558916 57.2395576,82.5220098 L75.6006986,69.7801822 C77.5013362,68.4996321 77.4312019,65.4503664 75.6006986,64.1768911 L57.2395577,51.4633628 C55.9420744,50.5365559 54.209759,51.0388711 53.4102287,52.6236403 Z" id="路径" fill="#FFFFFF"></path>
                <path d="M56,14 L56,30.1 C56,31.3613861 56.5465465,32.5811881 57.3173173,33.419802 L57.4154154,33.5514851 C58.3193194,34.4524753 59.5735736,35 60.9259259,35 L77,35 L56,14 Z" id="路径" fill="#FFFFFF"></path>
            </g>
        </g>
    </g>
</svg>