<svg  xmlns="http://www.w3.org/2000/svg" xmlns:xlink="http://www.w3.org/1999/xlink" width="76px" height="51px"><path fill-rule="evenodd"  fill="rgb(18, 106, 241)" d="M33.115,45.541 C36.002,43.185 40.117,43.139 43.055,45.430 C43.204,45.546 43.315,45.978 43.252,46.043 C41.722,47.630 40.187,49.214 38.647,50.792 L38.636,50.801 C38.506,50.929 38.331,51.000 38.149,50.998 C37.967,50.996 37.794,50.921 37.666,50.790 C36.112,49.183 34.554,47.580 32.994,45.978 C32.946,45.931 33.014,45.622 33.113,45.541 L33.115,45.541 Z"/><path fill-rule="evenodd"  fill="rgb(18, 106, 241)" d="M22.453,33.965 C26.718,30.752 32.021,28.846 37.769,28.846 C43.774,28.846 49.293,30.925 53.652,34.407 C53.969,34.660 54.164,35.035 54.190,35.440 C54.216,35.845 54.070,36.242 53.788,36.534 L52.287,38.081 C51.740,38.646 50.858,38.708 50.238,38.226 C46.668,35.457 42.281,33.958 37.769,33.965 C33.448,33.959 29.239,35.333 25.750,37.890 C25.058,38.402 24.095,38.315 23.505,37.687 L22.251,36.356 C21.938,36.023 21.780,35.573 21.819,35.116 C21.858,34.660 22.088,34.242 22.453,33.967 L22.453,33.965 Z"/><path fill-rule="evenodd"  fill="rgb(216, 216, 216)" d="M11.772,24.156 C19.061,18.133 28.209,14.846 37.646,14.861 C47.882,14.861 57.239,18.648 64.402,24.905 C64.664,25.135 64.822,25.462 64.836,25.811 C64.851,26.161 64.722,26.500 64.479,26.751 L62.724,28.566 C62.235,29.071 61.439,29.106 60.908,28.646 C54.440,23.048 46.184,19.974 37.647,19.987 C29.449,19.974 21.498,22.809 15.140,28.012 C14.450,28.577 13.443,28.511 12.831,27.860 L11.620,26.571 C11.307,26.237 11.145,25.788 11.175,25.330 C11.204,24.873 11.420,24.448 11.773,24.156 L11.772,24.156 Z"/><path fill-rule="evenodd"  fill="rgb(216, 216, 216)" d="M0.513,13.792 C10.841,4.877 24.032,-0.018 37.672,0.001 C51.602,-0.019 65.052,5.084 75.464,14.341 C75.791,14.631 75.985,15.041 76.000,15.477 C76.017,15.913 75.853,16.338 75.549,16.650 L74.285,17.950 C73.652,18.601 72.618,18.640 71.938,18.036 C62.477,9.686 50.289,5.087 37.672,5.106 C25.320,5.087 13.370,9.496 3.988,17.533 C3.347,18.081 2.388,18.030 1.810,17.415 L0.401,15.925 C0.124,15.631 -0.021,15.238 -0.000,14.834 C0.021,14.431 0.205,14.054 0.511,13.792 L0.513,13.792 Z"/></svg>